<mxfile host="app.diagrams.net" modified="2023-01-30T16:41:49.323Z" agent="5.0 (Windows NT 10.0; Win64; x64) AppleWebKit/537.36 (KHTML, like Gecko) Chrome/108.0.0.0 Safari/537.36 OPR/94.0.0.0" version="20.8.5" etag="u41uqa5_mR_HlEgrLjqY" type="github">
  <diagram id="Wc1cHFS1CN1t0heRObUZ" name="Page-1">
    <mxGraphModel dx="1548" dy="851" grid="1" gridSize="10" guides="1" tooltips="1" connect="1" arrows="1" fold="1" page="1" pageScale="1" pageWidth="1169" pageHeight="827" math="0" shadow="0">
      <root>
        <mxCell id="0" />
        <mxCell id="1" parent="0" />
        <mxCell id="LwphMtu0Iqmkb4TG6bCM-35" value="" style="rounded=0;whiteSpace=wrap;html=1;" vertex="1" parent="1">
          <mxGeometry y="5" width="1160" height="815" as="geometry" />
        </mxCell>
        <mxCell id="LwphMtu0Iqmkb4TG6bCM-36" value="" style="edgeStyle=orthogonalEdgeStyle;rounded=0;orthogonalLoop=1;jettySize=auto;html=1;entryX=0.5;entryY=0;entryDx=0;entryDy=0;" edge="1" parent="1" source="LwphMtu0Iqmkb4TG6bCM-37" target="LwphMtu0Iqmkb4TG6bCM-47">
          <mxGeometry relative="1" as="geometry" />
        </mxCell>
        <mxCell id="LwphMtu0Iqmkb4TG6bCM-37" value="Homepage" style="rounded=1;whiteSpace=wrap;html=1;fillColor=#f8cecc;strokeColor=#b85450;" vertex="1" parent="1">
          <mxGeometry x="515" y="60" width="120" height="60" as="geometry" />
        </mxCell>
        <mxCell id="LwphMtu0Iqmkb4TG6bCM-38" value="ชุดหมูกระทะ" style="whiteSpace=wrap;html=1;fillColor=#fff2cc;strokeColor=#d6b656;rounded=1;" vertex="1" parent="1">
          <mxGeometry x="350" y="200" width="120" height="60" as="geometry" />
        </mxCell>
        <mxCell id="LwphMtu0Iqmkb4TG6bCM-39" value="" style="edgeStyle=orthogonalEdgeStyle;rounded=0;orthogonalLoop=1;jettySize=auto;html=1;" edge="1" parent="1" source="LwphMtu0Iqmkb4TG6bCM-47" target="LwphMtu0Iqmkb4TG6bCM-38">
          <mxGeometry relative="1" as="geometry" />
        </mxCell>
        <mxCell id="LwphMtu0Iqmkb4TG6bCM-40" value="" style="edgeStyle=orthogonalEdgeStyle;rounded=0;orthogonalLoop=1;jettySize=auto;html=1;" edge="1" parent="1" source="LwphMtu0Iqmkb4TG6bCM-47" target="LwphMtu0Iqmkb4TG6bCM-48">
          <mxGeometry relative="1" as="geometry" />
        </mxCell>
        <mxCell id="LwphMtu0Iqmkb4TG6bCM-41" value="" style="edgeStyle=orthogonalEdgeStyle;rounded=0;orthogonalLoop=1;jettySize=auto;html=1;" edge="1" parent="1" source="LwphMtu0Iqmkb4TG6bCM-47" target="LwphMtu0Iqmkb4TG6bCM-48">
          <mxGeometry relative="1" as="geometry" />
        </mxCell>
        <mxCell id="LwphMtu0Iqmkb4TG6bCM-42" style="edgeStyle=orthogonalEdgeStyle;rounded=0;orthogonalLoop=1;jettySize=auto;html=1;entryX=0.5;entryY=0;entryDx=0;entryDy=0;" edge="1" parent="1" source="LwphMtu0Iqmkb4TG6bCM-47" target="LwphMtu0Iqmkb4TG6bCM-49">
          <mxGeometry relative="1" as="geometry">
            <mxPoint x="615" y="165" as="targetPoint" />
          </mxGeometry>
        </mxCell>
        <mxCell id="LwphMtu0Iqmkb4TG6bCM-43" style="edgeStyle=orthogonalEdgeStyle;rounded=0;orthogonalLoop=1;jettySize=auto;html=1;entryX=0.5;entryY=0;entryDx=0;entryDy=0;" edge="1" parent="1" source="LwphMtu0Iqmkb4TG6bCM-47" target="LwphMtu0Iqmkb4TG6bCM-50">
          <mxGeometry relative="1" as="geometry" />
        </mxCell>
        <mxCell id="LwphMtu0Iqmkb4TG6bCM-44" style="edgeStyle=orthogonalEdgeStyle;rounded=0;orthogonalLoop=1;jettySize=auto;html=1;" edge="1" parent="1" source="LwphMtu0Iqmkb4TG6bCM-47">
          <mxGeometry relative="1" as="geometry">
            <mxPoint x="90" y="195" as="targetPoint" />
          </mxGeometry>
        </mxCell>
        <mxCell id="LwphMtu0Iqmkb4TG6bCM-45" style="edgeStyle=orthogonalEdgeStyle;rounded=0;orthogonalLoop=1;jettySize=auto;html=1;entryX=0.5;entryY=0;entryDx=0;entryDy=0;" edge="1" parent="1" source="LwphMtu0Iqmkb4TG6bCM-47" target="LwphMtu0Iqmkb4TG6bCM-52">
          <mxGeometry relative="1" as="geometry" />
        </mxCell>
        <mxCell id="LwphMtu0Iqmkb4TG6bCM-46" style="edgeStyle=orthogonalEdgeStyle;rounded=0;orthogonalLoop=1;jettySize=auto;html=1;entryX=0.5;entryY=0;entryDx=0;entryDy=0;" edge="1" parent="1" source="LwphMtu0Iqmkb4TG6bCM-47" target="LwphMtu0Iqmkb4TG6bCM-53">
          <mxGeometry relative="1" as="geometry" />
        </mxCell>
        <mxCell id="LwphMtu0Iqmkb4TG6bCM-47" value="" style="ellipse;whiteSpace=wrap;html=1;aspect=fixed;fillColor=#0050ef;fontColor=#ffffff;strokeColor=#001DBC;" vertex="1" parent="1">
          <mxGeometry x="570" y="160" width="10" height="10" as="geometry" />
        </mxCell>
        <mxCell id="LwphMtu0Iqmkb4TG6bCM-48" value="ของว่างทานเล่น" style="whiteSpace=wrap;html=1;fillColor=#fff2cc;strokeColor=#d6b656;rounded=1;" vertex="1" parent="1">
          <mxGeometry x="515" y="200" width="120" height="60" as="geometry" />
        </mxCell>
        <mxCell id="LwphMtu0Iqmkb4TG6bCM-49" value="น้ำจิ้ม" style="whiteSpace=wrap;html=1;fillColor=#fff2cc;strokeColor=#d6b656;rounded=1;" vertex="1" parent="1">
          <mxGeometry x="680" y="200" width="120" height="60" as="geometry" />
        </mxCell>
        <mxCell id="LwphMtu0Iqmkb4TG6bCM-50" value="เครื่องดื่ม" style="whiteSpace=wrap;html=1;fillColor=#fff2cc;strokeColor=#d6b656;rounded=1;" vertex="1" parent="1">
          <mxGeometry x="190" y="200" width="120" height="60" as="geometry" />
        </mxCell>
        <mxCell id="LwphMtu0Iqmkb4TG6bCM-51" value="เมนูสั่งแยก" style="whiteSpace=wrap;html=1;fillColor=#fff2cc;strokeColor=#d6b656;rounded=1;" vertex="1" parent="1">
          <mxGeometry x="30" y="200" width="120" height="60" as="geometry" />
        </mxCell>
        <mxCell id="LwphMtu0Iqmkb4TG6bCM-52" value="Shopping cart" style="whiteSpace=wrap;html=1;fillColor=#fff2cc;strokeColor=#d6b656;rounded=1;" vertex="1" parent="1">
          <mxGeometry x="850" y="200" width="120" height="60" as="geometry" />
        </mxCell>
        <mxCell id="LwphMtu0Iqmkb4TG6bCM-53" value="Login" style="whiteSpace=wrap;html=1;fillColor=#fff2cc;strokeColor=#d6b656;rounded=1;" vertex="1" parent="1">
          <mxGeometry x="1010" y="200" width="120" height="60" as="geometry" />
        </mxCell>
        <mxCell id="LwphMtu0Iqmkb4TG6bCM-54" value="หมูกระทะชุด M" style="whiteSpace=wrap;html=1;fillColor=#f5f5f5;strokeColor=#666666;rounded=1;fontColor=#333333;" vertex="1" parent="1">
          <mxGeometry x="380" y="290" width="120" height="60" as="geometry" />
        </mxCell>
        <mxCell id="LwphMtu0Iqmkb4TG6bCM-55" value="" style="endArrow=classic;html=1;rounded=0;entryX=0;entryY=0.5;entryDx=0;entryDy=0;" edge="1" parent="1" target="LwphMtu0Iqmkb4TG6bCM-54">
          <mxGeometry width="50" height="50" relative="1" as="geometry">
            <mxPoint x="360" y="260" as="sourcePoint" />
            <mxPoint x="410" y="210" as="targetPoint" />
            <Array as="points">
              <mxPoint x="360" y="320" />
            </Array>
          </mxGeometry>
        </mxCell>
        <mxCell id="LwphMtu0Iqmkb4TG6bCM-56" value="หมูกระทะชุด L" style="whiteSpace=wrap;html=1;fillColor=#f5f5f5;strokeColor=#666666;rounded=1;fontColor=#333333;" vertex="1" parent="1">
          <mxGeometry x="380" y="383.5" width="120" height="60" as="geometry" />
        </mxCell>
        <mxCell id="LwphMtu0Iqmkb4TG6bCM-57" value="" style="endArrow=classic;html=1;rounded=0;entryX=0;entryY=0.5;entryDx=0;entryDy=0;" edge="1" parent="1" target="LwphMtu0Iqmkb4TG6bCM-56">
          <mxGeometry width="50" height="50" relative="1" as="geometry">
            <mxPoint x="360" y="320" as="sourcePoint" />
            <mxPoint x="390" y="330" as="targetPoint" />
            <Array as="points">
              <mxPoint x="360" y="414" />
            </Array>
          </mxGeometry>
        </mxCell>
        <mxCell id="LwphMtu0Iqmkb4TG6bCM-58" value="หมูกระทะชุด XL" style="whiteSpace=wrap;html=1;fillColor=#f5f5f5;strokeColor=#666666;rounded=1;fontColor=#333333;" vertex="1" parent="1">
          <mxGeometry x="380" y="470" width="120" height="60" as="geometry" />
        </mxCell>
        <mxCell id="LwphMtu0Iqmkb4TG6bCM-59" value="" style="endArrow=classic;html=1;rounded=0;entryX=0;entryY=0.5;entryDx=0;entryDy=0;" edge="1" parent="1" target="LwphMtu0Iqmkb4TG6bCM-58">
          <mxGeometry width="50" height="50" relative="1" as="geometry">
            <mxPoint x="360" y="410" as="sourcePoint" />
            <mxPoint x="390" y="423.5" as="targetPoint" />
            <Array as="points">
              <mxPoint x="360" y="500" />
            </Array>
          </mxGeometry>
        </mxCell>
      </root>
    </mxGraphModel>
  </diagram>
</mxfile>
